inDegrees=no
num_controls=7
num_derivatives=13
num_iterations=96
num_multipliers=7
num_parameters=0
num_slacks=7
num_states=26
objective=0.443984
objective_accelerations=0.059813
objective_balance=0.003761
objective_effort=0.024179
objective_height=0.350763
objective_ligament=0.005467
solver_duration=1408.853064
status=Solve_Succeeded
success=true
DataType=double
version=3
OpenSimVersion=4.5
endheader
time	/jointset/ground_pelvis/pelvis_tilt/value	/jointset/ground_pelvis/pelvis_tx/value	/jointset/ground_pelvis/pelvis_ty/value	/jointset/hip_l/hip_flexion_l/value	/jointset/hip_l/hip_adduction_l/value	/jointset/hip_l/hip_rotation_l/value	/jointset/back/lumbar_extension/value	/jointset/patellofemoral_l/patellar_flexion_l/value	/jointset/knee_l/knee_flexion_l/value	/jointset/knee_l/knee_adduction_l/value	/jointset/knee_l/knee_rotation_l/value	/jointset/ankle_l/ankle_angle_l/value	/jointset/subtalar_l/subtalar_angle_l/value	/jointset/ground_pelvis/pelvis_tilt/speed	/jointset/ground_pelvis/pelvis_tx/speed	/jointset/ground_pelvis/pelvis_ty/speed	/jointset/hip_l/hip_flexion_l/speed	/jointset/hip_l/hip_adduction_l/speed	/jointset/hip_l/hip_rotation_l/speed	/jointset/back/lumbar_extension/speed	/jointset/patellofemoral_l/patellar_flexion_l/speed	/jointset/knee_l/knee_flexion_l/speed	/jointset/knee_l/knee_adduction_l/speed	/jointset/knee_l/knee_rotation_l/speed	/jointset/ankle_l/ankle_angle_l/speed	/jointset/subtalar_l/subtalar_angle_l/speed	/forceset/tau_hip_flexion_l	/forceset/tau_hip_adduction_l	/forceset/tau_hip_rotation_l	/forceset/tau_knee_flexion_l	/forceset/tau_ankle_angle_l	/forceset/tau_subtalar_angle_l	/forceset/tau_lumbar_extension	lambda_cid13_p0	lambda_cid13_p1	lambda_cid13_p2	lambda_cid13_p3	lambda_cid13_p4	lambda_cid13_p5	lambda_cid14_p0	/jointset/ground_pelvis/pelvis_tilt/accel	/jointset/ground_pelvis/pelvis_tx/accel	/jointset/ground_pelvis/pelvis_ty/accel	/jointset/hip_l/hip_flexion_l/accel	/jointset/hip_l/hip_adduction_l/accel	/jointset/hip_l/hip_rotation_l/accel	/jointset/back/lumbar_extension/accel	/jointset/patellofemoral_l/patellar_flexion_l/accel	/jointset/knee_l/knee_flexion_l/accel	/jointset/knee_l/knee_adduction_l/accel	/jointset/knee_l/knee_rotation_l/accel	/jointset/ankle_l/ankle_angle_l/accel	/jointset/subtalar_l/subtalar_angle_l/accel	gamma_cid13_p0	gamma_cid13_p1	gamma_cid13_p2	gamma_cid13_p3	gamma_cid13_p4	gamma_cid13_p5	gamma_cid14_p0
1.5	-0.3864385766739343	-0.03274101323826484	0.7548474446173529	1.149074496515651	-0.4342637264648279	-0.208064524794391	-0.2276450888595952	0.8184231325539648	0.8184231325541668	-0.1257348372872077	-0.1465394048105207	0.1196624803571212	-0.02325701565537241	0.7248981512688217	0.289066232064326	0.5616583215533062	-2.571569881812368	0.2046702744713153	-0.7252292928267373	0.3087311304542217	-2.049897628897817	-2.049897628897941	-0.1449272079538364	0.1338868761965497	-0.373814361578348	0.04489979212752677	-0.1829712806335279	0.03060315882687483	-0.008871352526112786	-0.2041203753705596	0.05322342270170058	0.04125584648578474	0.1742102223241207	-15.10040586454128	-18.01347643252111	5.665701375977336	-9.380570870688636	-519.4888931935959	-57.2798140498988	-24.31981612561824	0.7288334570301386	0.7774452176297354	-0.5344569907249018	-1.385545551706614	0.7277192629875257	-0.2367399551086027	1.543582881657993	-1.347590022827918	-1.347590022827913	0.1570195805298116	0.2175367575573812	-0.4990262891906093	0.5338152072085063	5.675097051340525e-07	2.515327802916419e-07	-3.516026499254445e-06	-2.11430984178721e-07	8.148821624620584e-07	-2.346307504786818e-07	5.134568985803248e-07
1.51	-0.3791532106433297	-0.02981174948964192	0.7604361920117307	1.123291119552826	-0.432182471714666	-0.2153247399529477	-0.2244821003262484	0.7978588854551719	0.7978588854551537	-0.1271817349260284	-0.1451892773962849	0.1158994385811966	-0.02278360021001999	0.7320617219155168	0.2967492589153608	0.5559705741438651	-2.584747470840961	0.2115536838418071	-0.7266828466800946	0.3238262397315332	-2.062673795011198	-2.062673795011278	-0.14447643611011	0.1361502939900543	-0.3787295155790225	0.04977838466851945	-0.1764270591143138	0.0297559038521057	-0.008569232499473289	-0.2014942582153432	0.05333485015570435	0.04049990349205347	0.1689304602909508	-14.83365942711261	-17.74551965145821	5.638565154643439	-9.256637726754613	-515.2266402000282	-57.49007813515718	-25.25530388885259	0.6931910898269655	0.7581088333679611	-0.6038499768666756	-1.230071182991767	0.6649754244645562	-0.07953849756866881	1.486424478200846	-1.201034714120156	-1.201034714113752	-0.01456692687402582	0.2318131896267748	-0.4781075158558695	0.46447487200303	5.793106758880456e-07	3.703995034927661e-07	-3.446666180873889e-06	-1.833399981304154e-07	8.417425392661919e-07	-1.375172216176375e-07	5.183888732742815e-07
1.52	-0.3717995944619906	-0.02680677998960316	0.7659644786598517	1.097386725578807	-0.4300331181407216	-0.2225954657294618	-0.2211693707946411	0.7771751957335418	0.7771751957332993	-0.1286248594290549	-0.1438163020242283	0.1120891757531955	-0.02226148012036596	0.7385481814157231	0.3042073823474957	0.5495661723019192	-2.5957732840518	0.2182900392276795	-0.7273314164182256	0.3386793301061709	-2.073786153465661	-2.073786153465699	-0.144172580793106	0.1384564677587496	-0.383258571993697	0.05464072098784746	-0.1698828375950756	0.02890864887734045	-0.008267112472905852	-0.19886814106012	0.05344627760970803	0.0397439604983277	0.1636506982578032	-14.56932758905701	-17.47841562072419	5.613024222150089	-9.175050955666016	-511.0264180330788	-57.76580826009438	-26.1899199086705	0.5934112277323573	0.7324645338497529	-0.6777878772258665	-0.9551903881559549	0.6983084660636559	-0.07574313206335737	1.49517910112321	-1.014828491044665	-1.014828491044666	0.1276362751853049	0.2260879525955363	-0.4218067719906107	0.5305639628755795	5.265471618190837e-07	7.158375584131942e-07	-2.807363677969985e-06	-6.381902967724711e-08	7.787097751344233e-07	-3.200008202080216e-08	4.825698180872457e-07
1.53	-0.3643845259584568	-0.02372850190152863	0.7714251661290558	1.071383218202291	-0.4278167878555256	-0.2298722767933162	-0.2177092989008852	0.756389250696035	0.7563892506958235	-0.1300624509389526	-0.1424224193777399	0.1082357494292867	-0.0216902338890085	0.7443575398612946	0.3113961366030477	0.5424543656678859	-2.604549203757645	0.2249474007990246	-0.7279022521203334	0.3532888780423543	-2.083092976309622	-2.083092976309628	-0.1433555713566873	0.1403218111325614	-0.3873546928567778	0.05960641806206157	-0.1637400102669433	0.02812393106300664	-0.007883125071685808	-0.1955436668068224	0.05239482559107757	0.0390088494275797	0.1586131693079687	-14.68381825144276	-17.15263683892653	5.576536245520821	-8.710139331399834	-506.8916771957636	-58.01936408753731	-27.12333177875891	0.5585020264396729	0.7043198395597363	-0.7453133794689049	-0.7819368497872798	0.6450557909265965	-0.02815078665066804	1.436917049444041	-0.8421997416248906	-0.8421997416199487	0.05750340209330571	0.1667915484232498	-0.3926567844473547	0.4791022565393542	4.051838826257328e-07	1.30200765328538e-06	-1.562497604010032e-06	1.528462950810867e-07	6.201655487582594e-07	8.244589398281112e-08	4.03452793651656e-07
1.54	-0.3569146030957732	-0.02057988847726823	0.7768112482673242	1.045303322811122	-0.4255347627969642	-0.2371508756136655	-0.2141045166458512	0.7355195193179784	0.7355195193177968	-0.1314921183296456	-0.1410098764937796	0.104343533488551	-0.02106942475153989	0.7495190532456719	0.3182744495846686	0.534645106114793	-2.611050886983028	0.2314289939006358	-0.7276889677170878	0.3676214023616644	-2.090543421575706	-2.090543421575678	-0.1425877569513424	0.1421885152523428	-0.3910164953590802	0.06455330221007673	-0.1575971829387912	0.0273392132486737	-0.007499137670493035	-0.1922191925535211	0.05134337357244643	0.03827373835683295	0.1535756403581533	-14.80092024547061	-16.82952905885287	5.544048042168505	-8.274707552285555	-502.8114452583772	-58.30932200126509	-28.05588718297282	0.4638422154934922	0.670376279063535	-0.8172784610377665	-0.5003430920635122	0.663154772116885	0.08108088900732303	1.439774377748548	-0.6435529754693339	-0.6435529754693297	0.1177972689705391	0.2263601017894606	-0.3349430998349327	0.5268013776357966	3.704404429122277e-07	1.631809061504781e-06	-1.072183672666614e-06	2.534774116483204e-07	5.87884562906579e-07	1.738916908715526e-07	3.833746588219908e-07
1.55	-0.3493963354170749	-0.01736404987925478	0.78211591126015	1.019169326562464	-0.4231891195525129	-0.2444233496773753	-0.2103582481658247	0.7145842038006635	0.7145842038004733	-0.1329151699240332	-0.1395786651497743	0.1004167605168317	-0.02039966111310157	0.754003506556513	0.3248390007429714	0.5261823366534729	-2.615362763605028	0.2376691215583281	-0.7267249247080072	0.3815623253459609	-2.096215069223698	-2.096215069223733	-0.1420010806873207	0.1440288506063475	-0.3942596994224298	0.06940034401899908	-0.1509442960288555	0.0261667776778879	-0.007206844655761636	-0.1900190005125467	0.05175929199031586	0.03713958114975882	0.1481434080269512	-14.47836719845521	-16.40229248293469	5.486044508384304	-8.08765906966725	-499.0218546669371	-58.37917341195312	-28.98852368187415	0.4211142186665322	0.6413945529986167	-0.8763967646904234	-0.3387449974521327	0.5998428147366101	0.1166259538435459	1.360756014096676	-0.4833703511141811	-0.4833703511235897	0.0325403985322027	0.1587569656295756	-0.3071961112673005	0.4637176179050408	4.35498122599409e-07	1.666229156841641e-06	-1.451245036076983e-06	2.2041694051712e-07	7.010807889635343e-07	2.38837281388813e-07	4.313195924513217e-07
1.56	-0.3418371497393105	-0.01408418576590134	0.7873328224431604	0.9930037845375514	-0.420781994821056	-0.2516836713215972	-0.2064746695048894	0.6936012918685411	0.693601291868337	-0.1343316672371076	-0.1381298731095337	0.09645991809414262	-0.01968141464949712	0.7577026530588382	0.3310795526526669	0.5170947441517161	-2.617360042234384	0.2437252913016677	-0.725258483819521	0.3950834385433177	-2.100062704537692	-2.100062704537789	-0.1412769006867298	0.1457046544972956	-0.397030385553072	0.07424986724330497	-0.1442914091189002	0.02499434210710461	-0.006914551641100318	-0.1878188084715637	0.05217521040818593	0.03600542394268878	0.1427111756957669	-14.1561292241667	-15.97896995867656	5.433199852026192	-7.943961537946773	-495.2499992510146	-58.49859910543451	-29.92252651581032	0.3067808537902959	0.6055764293421039	-0.9422430691251072	-0.03742349353459642	0.6263631892463591	0.1815604648884131	1.355812420360589	-0.2787505086696538	-0.2787505086696559	0.1452980162843868	0.1934538091781219	-0.2404395132934364	0.5272976607125111	4.482112713374853e-07	1.727565673690419e-06	-1.543330069368691e-06	2.292061928406497e-07	7.26629451045118e-07	2.886065877818021e-07	4.463159611691314e-07
1.57	-0.3342448791850157	-0.01074364707358962	0.79245576262293	0.9668301295329782	-0.4183152092434143	-0.2589271587121147	-0.202457977339039	0.6725895000871666	0.6725895000871648	-0.1357397688797307	-0.1366654001381943	0.09247792381925252	-0.01891451028501121	0.7606282033575528	0.3369614720767778	0.5073959543778261	-2.616979105617316	0.249586542251544	-0.7233260035263432	0.408172308597036	-2.101970798939343	-2.101970798939321	-0.1403518589425129	0.1471778543374044	-0.3992876673569461	0.07911664134080099	-0.1380000654880567	0.0237084596357306	-0.006590417209929657	-0.1851251199718814	0.05167469196353116	0.03497765958858214	0.1375119639307379	-14.14039003105336	-15.55204386292452	5.384183844838788	-7.500686590394997	-491.6797536078273	-58.69474571480464	-30.84509727077641	0.2669512258199724	0.5695577364822199	-0.99817869541627	0.1346346960425577	0.5591005386985306	0.2164066441932808	1.273021393402633	-0.09819199579789854	-0.09819199577997702	0.06510936530798221	0.1221601884460229	-0.2061926035734149	0.4640441080970421	3.95493756389181e-07	1.822547717429093e-06	-1.276694690012079e-06	2.903075994825916e-07	6.426186581574882e-07	3.194055390194524e-07	4.201266237475396e-07
1.58	-0.326627051306152	-0.007346277579529478	0.7974788185521819	0.9406720403859195	-0.4157911922581055	-0.2661478583331695	-0.1983128770535461	0.6515683567437968	0.6515683567440013	-0.1371388196825438	-0.1351866137450547	0.08847579270839571	-0.01809940281478458	0.7628141179725867	0.3424457130023517	0.4971178940481326	-2.614246870731642	0.2551715728350319	-0.7207009299267324	0.4207650624717631	-2.101933016936395	-2.101933016936253	-0.139466732725591	0.1485673388582639	-0.4010577527463806	0.08389048839145266	-0.1317087218572046	0.02242257716435239	-0.006266282778727011	-0.1824314314722021	0.05117417351887397	0.03394989523446887	0.1323127521657198	-14.13266414950527	-15.12729969287562	5.339611582233998	-7.067185135434725	-488.2328478086267	-58.94732691826337	-31.74569175088016	0.1588537170541663	0.5260407296346946	-1.058097180285833	0.4328361601866711	0.5711191159686958	0.3200791261750364	1.256589184562343	0.1104247722503213	0.1104247722503192	0.1373149108253824	0.1767107453282676	-0.1430002304054819	0.5087122513436538	3.503728345068227e-07	1.931410050893577e-06	-1.031748456512729e-06	3.438582664438038e-07	5.764419287388367e-07	3.468721813698959e-07	3.98060202890267e-07
